<svg xmlns="http://www.w3.org/2000/svg" xmlns:xlink="http://www.w3.org/1999/xlink" width="48" height="48" version="1.1"><defs><linearGradient id="color-1" x1="17.487" x2="51.727" y1="14.23" y2="54.983" gradientUnits="userSpaceOnUse"><stop offset="0" stop-color="#000" stop-opacity=".3"/><stop offset="1" stop-color="#000" stop-opacity="0"/></linearGradient><filter id="dropshadow-base"><feColorMatrix type="matrix" values="0 0 0 0 0 0 0 0 0 0 0 0 0 0 0 0 0 0 .8 0"/><feOffset dx="0" dy="1"/><feGaussianBlur stdDeviation="1"/><feComposite in="SourceGraphic"/></filter><filter id="dropshadow-banner" width="120%" height="130%" x="-10%" y="-10%"><feColorMatrix type="matrix" values="0 0 0 0 0 0 0 0 0 0 0 0 0 0 0 0 0 0 .4 0"/><feOffset dx="0" dy="1"/><feGaussianBlur stdDeviation=".5"/><feComposite in="SourceGraphic"/></filter></defs><g fill="none" fill-rule="nonzero" stroke="none" stroke-dashoffset="0" stroke-linecap="butt" stroke-linejoin="miter" stroke-miterlimit="10" stroke-width="none" font-family="none" font-size="none" font-weight="none" text-anchor="none" style="mix-blend-mode:normal"><path id="base 1 5" fill="#7050fa" stroke-width="1" d="M2,24c0,-12.15026 9.84974,-22 22,-22c12.15026,0 22,9.84974 22,22c0,12.15026 -9.84974,22 -22,22c-12.15026,0 -22,-9.84974 -22,-22z"/><path fill="url(#color-1)" stroke-width="1" d="M18.75807,32.49863c-0.78568,-0.78568 -1.27147,-1.87124 -1.27147,-3.0708c0,-2.3991 1.94316,-4.34227 4.34227,-4.34227c0.79246,0 1.53064,0.22798 2.17113,0.60249v-11.45817l6.5134,0l14.88815,14.88815c-1.75585,7.36944 -7.21939,13.30096 -14.31007,15.714z"/><path fill="none" stroke-width="0" d="M24,14v11.72778c-0.65556,-0.38333 -1.41111,-0.61667 -2.22222,-0.61667c-2.45556,0 -4.44444,1.98889 -4.44444,4.44444c0,2.45556 1.98889,4.44444 4.44444,4.44444c2.45556,0 4.44444,-1.98889 4.44444,-4.44444v-11.11111h4.44444v-4.44444z" transform="translate(0.55174,0.55174) scale(0.97701,0.97701)"/><path fill="#fff" stroke-width="0" d="M30.51341,14.22989v4.34227h-4.34227v10.85568c0,2.3991 -1.94317,4.34227 -4.34227,4.34227c-2.3991,0 -4.34227,-1.94317 -4.34227,-4.34227c0,-2.3991 1.94317,-4.34227 4.34227,-4.34227c0.79246,0 1.53065,0.22797 2.17114,0.60249v-11.45817z"/><path id="base 1 1 1" fill="none" stroke-width="1" d="M2,24c0,-12.15026 9.84974,-22 22,-22c12.15026,0 22,9.84974 22,22c0,12.15026 -9.84974,22 -22,22c-12.15026,0 -22,-9.84974 -22,-22z"/><rect width="44" height="22" x="2" y="2" fill="none" stroke-width="1"/><path fill="none" stroke-width="1" d="M2,24v-22h44v22z"/><path fill="none" stroke-width="1" d="M2,24v-22h44v22z"/><path fill="none" stroke-width="1" d="M2,24v-22h44v22z"/><path fill="none" stroke-width="1" d="M2,24v-22h44v22z"/></g></svg>